<?xml version="1.0" encoding="utf-8"?>
<!-- Generator: Adobe Illustrator 28.0.0, SVG Export Plug-In . SVG Version: 6.00 Build 0)  -->
<svg version="1.1" id="Layer_1" xmlns="http://www.w3.org/2000/svg" xmlns:xlink="http://www.w3.org/1999/xlink" x="0px" y="0px"
	 viewBox="0 0 256 256" style="enable-background:new 0 0 256 256;" xml:space="preserve">
<style type="text/css">
	.st0{fill:#EE4444;}
	.st1{fill:#FFFFFF;}
</style>
<g>
	<path class="st0" d="M251.8,227l-44.5-51.2c31.1-45.5,31.1-102.7-2.9-137C165-0.6,94.2,5.8,46.8,53.4
		c-47.7,47.7-54,118.2-14.6,157.6C71,249.9,139.6,244.5,187,199.3l62.6,31.5C252.1,231.4,253.7,228.2,251.8,227z"/>
	<path class="st1" d="M111,187.6c-2.9,4.4-9.2,4.8-12.7,1l-50.9-56.9c-1.6-1.9,0.3-4.4,2.5-3.5l50.5,22.2c2.9,1.3,6,0.6,8.3-1.6
		l79.5-76.9c1-1,2.2,0.3,1.6,1.3L111,187.6z"/>
</g>
</svg>
