<?xml version="1.0" encoding="utf-8"?>
<!-- Generator: Adobe Illustrator 28.0.0, SVG Export Plug-In . SVG Version: 6.00 Build 0)  -->
<svg version="1.1" id="Layer_1" xmlns="http://www.w3.org/2000/svg" xmlns:xlink="http://www.w3.org/1999/xlink" x="0px" y="0px"
	 viewBox="0 0 300 100" style="enable-background:new 0 0 300 100;" xml:space="preserve">
<style type="text/css">
	.st0{fill:#231F20;}
	.st1{fill:#EE4444;}
	.st2{fill:#FFFFFF;}
</style>
<g>
	<g>
		<path class="st0" d="M112,52.1v-28c0-3.2-2.5-5.8-5.6-5.8H101c-3.1,0-5.5,2.6-5.5,5.8V52c0,3.1,2.5,5.7,5.5,5.7h5.4
			c0.1,0,0.2,0,0.4,0l1.9,3.2h3.4l-2.1-4.5C111.3,55.4,112,53.8,112,52.1z M108.4,24.1V52c0,1.2-0.8,2.6-2,2.6H101
			c-1.1,0-1.9-1.3-1.9-2.6V24.1c0-1.3,0.8-2.7,1.9-2.7h5.4C107.5,21.5,108.4,22.9,108.4,24.1z"/>
		<path class="st0" d="M125.4,54.6h-4.6c-0.1,0-0.1,0-0.3-0.1l0,0c-0.3-0.1-0.6-0.5-0.6-0.9V29.3h-3.6v24.3c0,2.2,1.8,4.1,3.9,4.1
			h8.9V29.3h-3.7C125.4,29.3,125.4,54.6,125.4,54.6z"/>
		<path class="st0" d="M141.8,29.1h-5.3c-2.2,0-4,1.9-4,4.2v4.5h3.6v-4.5c0-0.5,0.3-0.9,0.6-1c0.1,0,0.2-0.1,0.3-0.1h4.3
			c0.1,0,0.2,0,0.3,0.1c0.3,0.1,0.6,0.5,0.6,1v6.2H136c-2.2,0-4,1.8-4,4v10.1c0,2.2,1.8,4.1,4,4.1h9.9V33.3
			C145.8,31,144,29.1,141.8,29.1z M142.1,42.6v11.9h-5.6c-0.1,0-0.1,0-0.3-0.1l0,0c-0.3-0.1-0.6-0.5-0.6-0.9v-10
			c0-0.4,0.3-0.7,0.5-0.8h0.1c0.1,0,0.2-0.1,0.3-0.1C136.5,42.6,142.1,42.6,142.1,42.6z"/>
		<rect x="149.6" y="18.5" class="st0" width="3.7" height="39.2"/>
		<rect x="157.2" y="21.7" class="st0" width="3.7" height="5.8"/>
		<rect x="157.2" y="29.3" class="st0" width="3.7" height="28.4"/>
		<path class="st0" d="M173.3,54.6h-2.9c-0.1,0-0.2,0-0.3-0.1c-0.3-0.1-0.6-0.4-0.6-0.8V32.4h3.2v-3.2h-3.2v-7.5h-3.7v7.5h-3.2v3.2
			h3.2v21.3c0,2.2,1.8,4,4,4h3.4v-3.1H173.3z"/>
		<polygon class="st0" points="180.7,50 176.7,29.3 173.1,29.3 178.8,57.7 179.2,57.7 177.3,66.3 180.8,66.3 188.9,29.3 185.3,29.3 
					"/>
		<path class="st0" d="M211.2,18.4h-4.9c-3,0-5.6,2.6-5.6,5.8v27.9c0,3.1,2.6,5.8,5.6,5.8h5.1c2.9,0,5.4-2.6,5.4-5.8v-8.8h-3.7v8.8
			c0,1.2-0.8,2.5-1.9,2.5h-4.9c-1.1,0-1.9-1.3-1.9-2.5v-28c0-1.3,0.8-2.7,1.9-2.7h4.9c1.1,0,1.9,1.4,1.9,2.7v7.7h3.7v-7.7
			C216.8,21,214.2,18.4,211.2,18.4z"/>
		<path class="st0" d="M230.9,29.2l-0.5-0.1h-5.9c-2.1,0-3.9,1.9-3.9,4.2v20.3c0,2,1.5,3.9,3.4,4l0.5,0.1h5.9c2.2,0,4-1.9,4-4.1
			V33.3C234.4,31.3,232.8,29.5,230.9,29.2z M230.7,33.3v20.3c0,0.4-0.3,0.8-0.6,0.9c-0.1,0-0.2,0.1-0.3,0.1H225
			c-0.1,0-0.1,0-0.3-0.1l0,0c-0.3-0.1-0.6-0.5-0.6-0.9V33.3c0-0.5,0.3-0.9,0.5-1h0.1c0.1,0,0.2-0.1,0.3-0.1h4.8c0.1,0,0.2,0,0.3,0.1
			C230.4,32.4,230.7,32.8,230.7,33.3z"/>
		<path class="st0" d="M248.2,57.7h3.7V32.2c0-1.6-1.3-3-2.9-3h-8.1c-1.5,0-2.9,1.4-2.9,3v25.5h3.6V32.3h6.5L248.2,57.7L248.2,57.7z
			"/>
		<path class="st0" d="M260.7,54.5c-0.3-0.1-0.6-0.4-0.6-0.8V32.4h3.2v-3.2h-3.2v-7.5h-3.7v7.5h-3.2v3.2h3.2v21.3c0,2.2,1.8,4,4,4
			h3.4v-3.1H261C260.9,54.6,260.9,54.6,260.7,54.5z"/>
		<path class="st0" d="M265.5,33.3v24.4h3.6V33.3c0-0.6,0.1-0.7,0.4-0.9c0.2-0.1,1.3-0.1,2.9-0.1h2.1v-3h-5.1
			C267.3,29.3,265.5,31.1,265.5,33.3z"/>
		<path class="st0" d="M290.2,53.6V33.3c0-2-1.5-3.8-3.5-4.1l-0.5-0.1h-5.9c-2.1,0-3.9,1.9-3.9,4.2v20.3c0,2,1.5,3.9,3.4,4l0.5,0.1
			h5.9C288.4,57.7,290.2,55.8,290.2,53.6z M280.9,54.6c-0.1,0-0.1,0-0.3-0.1l0,0c-0.3-0.1-0.6-0.5-0.6-0.9V33.3c0-0.5,0.3-0.9,0.5-1
			h0.1c0.1,0,0.2-0.1,0.3-0.1h4.8c0.1,0,0.2,0,0.3,0.1c0.3,0.1,0.6,0.5,0.6,1v20.3c0,0.4-0.3,0.8-0.6,0.9c-0.1,0-0.2,0.1-0.3,0.1
			H280.9z"/>
		<rect x="294.1" y="18.5" class="st0" width="3.7" height="39.2"/>
		<path class="st0" d="M101.8,74.7c-0.6-0.4-1.5-1-2.3-1.6c-0.6-0.4-1.1-0.8-1.5-1L97.9,72c-0.8-0.6-1.1-0.7-1.1-1.7V67
			c0-0.5,0.3-1.1,0.7-1.1h2.4c0.4,0,0.7,0.6,0.7,1.1v4.9h2.7V67c0-1.9-1.5-3.5-3.4-3.5h-2.4c-1.8,0-3.4,1.6-3.4,3.5v3.6
			c0,1.5,0.6,2.5,2.1,3.5c1.1,0.7,2.3,1.6,3.6,2.6c0.9,0.7,1.2,0.9,1.2,1.6v4.1c0,0.6-0.4,1.1-0.7,1.1h-3c-0.4,0-0.7-0.6-0.7-1.1
			v-4.9h-2.7v4.9c0,1.9,1.5,3.5,3.4,3.5h3.1c1.9,0,3.4-1.6,3.4-3.5v-4.1C103.7,77.5,103.7,76,101.8,74.7z"/>
		<polygon class="st0" points="137.7,79.6 135.7,69.5 133,69.5 136.3,85.8 136.4,85.8 135.3,90.5 138,90.5 142.6,69.5 139.9,69.5 		
			"/>
		<path class="st0" d="M177.7,76.6c-0.4-0.2-0.9-0.4-1.4-0.7c-0.6-0.3-1.2-0.5-1.7-0.8s-0.5-0.3-0.5-0.7v-2.3c0-0.1,0.1-0.2,0.1-0.2
			h0.1h1.8c0,0,0.1,0.1,0.1,0.2v3.4h2.7v-3.4c0-1.4-1.2-2.6-2.5-2.6H174c-1.4,0-2.5,1.2-2.5,2.6v2.3c0,0.8,0,2.1,1.6,2.9
			c0.4,0.2,0.8,0.4,1.2,0.6c0.6,0.3,1.2,0.5,1.7,0.8c0.4,0.2,0.5,0.3,0.5,0.7v3.8c0,0.1-0.1,0.2-0.1,0.2h-2.1c0,0-0.1-0.1-0.1-0.2
			V79h-2.7v4.2c0,1.4,1.2,2.6,2.5,2.6h2.7c1.4,0,2.5-1.2,2.5-2.6v-4.1C179.2,78.5,178.9,77.2,177.7,76.6z"/>
		<path class="st0" d="M212.7,83.3V71.9h1.8v-2.4h-1.8v-4.1H210v4.1h-1.8v2.4h1.8v11.4c0,1.4,1.1,2.5,2.5,2.5h2.2v-2.4L212.7,83.3
			C212.7,83.4,212.7,83.4,212.7,83.3z"/>
		<path class="st0" d="M249.9,69.4h-3.3c-1.4,0-2.5,1.2-2.5,2.6v11.2c0,1.4,1.2,2.6,2.5,2.6h3c1.4,0,2.5-1.2,2.5-2.6v-3.9h-2.7v3.9
			c0,0.1-0.1,0.2-0.1,0.2H247h-0.1c0,0-0.1-0.1-0.1-0.2v-4.8h5.6V72C252.4,70.6,251.3,69.4,249.9,69.4z M249.7,72.1v4h-2.9v-4
			c0-0.1,0.1-0.2,0.1-0.2h0.1h2.7C249.7,71.8,249.7,71.9,249.7,72.1z"/>
		<path class="st0" d="M294.8,69.4h-10.1c-1,0-1.9,0.9-1.9,2v14.4h2.7v-14h2.9v14h2.7v-14h2.9v14h2.7V71.4
			C296.8,70.3,295.9,69.4,294.8,69.4z"/>
	</g>
	<path class="st1" d="M79.8,80.7l-14-16.1c9.8-14.3,9.8-32.3-0.9-43.1C52.5,9.1,30.2,11.1,15.3,26.1c-15,15-17,37.2-4.6,49.6
		C22.9,87.9,44.5,86.2,59.4,72l19.7,9.9C79.9,82.1,80.4,81.1,79.8,80.7z"/>
</g>
<path class="st2" d="M35.5,68.3c-0.9,1.4-2.9,1.5-4,0.3l-16-17.9c-0.5-0.6,0.1-1.4,0.8-1.1l15.9,7c0.9,0.4,1.9,0.2,2.6-0.5l25-24.2
	c0.3-0.3,0.7,0.1,0.5,0.4L35.5,68.3z"/>
</svg>
